<?xml version="1.0" standalone="no"?>
<!DOCTYPE svg PUBLIC "-//W3C//DTD SVG 20010904//EN"
 "http://www.w3.org/TR/2001/REC-SVG-20010904/DTD/svg10.dtd">
<svg version="1.0" xmlns="http://www.w3.org/2000/svg"
 width="700.000000pt" height="700.000000pt" viewBox="0 0 700.000000 700.000000"
 preserveAspectRatio="xMidYMid meet">
<metadata>
Created by potrace 1.14, written by Peter Selinger 2001-2017
</metadata>
<g transform="translate(0.000000,700.000000) scale(0.100000,-0.100000)"
fill="#000000" stroke="none">
<path d="M3190 6409 c-219 -23 -493 -87 -708 -166 -264 -97 -588 -280 -812
-459 -109 -87 -367 -345 -454 -454 -169 -211 -340 -509 -440 -762 -25 -65 -46
-119 -46 -120 0 -2 28 -4 63 -5 66 -1 142 -10 167 -20 8 -3 24 -7 35 -8 11 -2
53 -13 93 -26 39 -12 75 -19 78 -16 4 4 -1 46 -10 95 -19 104 -12 137 37 190
77 81 213 58 261 -43 32 -66 49 -191 43 -309 -6 -116 -6 -116 48 -150 35 -23
49 -34 81 -63 13 -12 24 -19 24 -16 0 3 18 -13 40 -36 22 -23 40 -39 40 -36 0
3 16 -10 35 -30 20 -19 40 -35 44 -35 13 0 21 27 27 94 14 147 68 215 172 216
82 0 142 -45 163 -123 20 -74 -19 -267 -82 -405 -30 -67 -29 -79 9 -122 28
-31 39 -45 52 -71 7 -13 16 -26 19 -29 4 -3 15 -18 25 -35 11 -16 23 -34 28
-40 5 -5 23 -32 40 -60 17 -27 46 -72 64 -100 18 -27 38 -62 45 -77 7 -16 16
-28 20 -28 10 0 49 105 49 133 1 38 36 103 70 127 42 30 114 37 162 17 55 -23
98 -88 98 -148 0 -117 -66 -282 -160 -398 l-52 -64 32 -71 c72 -155 110 -243
115 -266 2 -8 14 -40 25 -70 12 -30 22 -62 22 -70 1 -8 7 -23 14 -34 7 -10 10
-24 8 -31 -14 -35 22 -20 81 35 36 33 77 65 91 70 37 15 89 12 126 -6 40 -19
88 -78 89 -111 1 -12 2 -29 2 -35 5 -73 -72 -172 -199 -256 -43 -28 -82 -53
-88 -55 -6 -2 -6 -32 3 -88 19 -132 27 -252 25 -365 -2 -80 0 -104 10 -104 20
0 130 36 165 54 98 51 221 -23 221 -132 0 -41 -13 -67 -53 -110 -39 -41 -201
-105 -325 -129 l-91 -17 -18 -63 c-10 -35 -21 -63 -25 -63 -5 0 -8 -5 -8 -12
0 -17 -50 -117 -82 -165 l-28 -41 128 -31 c256 -61 429 -81 702 -81 287 0 492
26 758 95 370 97 766 297 1072 541 109 87 367 345 454 454 169 211 340 509
440 762 50 128 52 135 34 121 -7 -5 -26 -9 -43 -7 -49 3 -150 16 -156 20 -3 2
-20 6 -38 9 -17 3 -66 17 -108 30 -41 14 -81 25 -87 25 -7 0 -10 -17 -8 -48 5
-63 -16 -112 -63 -148 -32 -24 -48 -29 -94 -29 -38 1 -67 7 -89 20 -64 38
-104 159 -104 317 0 82 -7 97 -58 130 -32 20 -66 49 -140 120 -33 31 -60 55
-60 53 0 -3 -15 12 -33 32 -20 21 -39 33 -45 29 -7 -4 -12 -32 -12 -65 0 -111
-79 -188 -182 -179 -91 9 -148 75 -148 171 0 83 27 254 50 323 11 31 20 67 20
78 0 12 -22 53 -50 91 -27 38 -50 73 -50 77 0 3 -6 13 -13 20 -7 7 -26 36 -41
63 -16 28 -32 52 -36 55 -4 3 -29 48 -55 100 -59 118 -64 114 -101 -67 -6 -32
-54 -84 -91 -99 -99 -42 -207 17 -227 124 -16 89 65 310 153 415 45 53 46 80
9 143 -10 18 -23 45 -28 61 -5 15 -18 53 -30 83 -27 71 -87 253 -100 308 -6
23 -15 42 -21 42 -5 0 -33 -24 -62 -54 -82 -84 -143 -105 -221 -72 -78 32
-118 142 -81 220 22 47 144 160 226 210 76 47 79 50 71 90 -9 45 -8 391 0 454
l8 52 -31 0 c-30 0 -174 -44 -194 -59 -43 -34 -138 -15 -189 37 -59 59 -69
139 -25 211 47 78 258 151 479 166 30 2 57 4 60 4 3 1 16 26 30 56 14 30 28
55 33 55 4 0 7 6 7 13 0 7 11 24 25 39 14 15 21 29 17 32 -38 23 -375 89 -541
106 -121 12 -479 11 -601 -1z m811 -806 c1 -16 0 -32 -1 -38 -7 -24 -5 -184 2
-229 4 -28 5 -59 2 -70 -6 -25 -123 -116 -148 -116 -27 0 -100 57 -134 103
-60 85 -77 192 -46 296 15 52 15 52 47 44 18 -4 66 -8 107 -8 60 1 82 5 110
23 46 29 60 28 61 -5z m-1599 -4 c202 -41 380 -212 433 -415 19 -75 19 -213 0
-288 -48 -184 -198 -342 -380 -399 -99 -31 -253 -31 -345 1 -134 46 -223 113
-298 225 -67 102 -96 196 -96 317 1 162 52 288 164 400 137 138 334 198 522
159z m1574 -1310 c62 -19 163 -80 198 -118 18 -20 18 -22 -7 -79 -40 -89 -70
-227 -64 -295 8 -84 56 -157 133 -203 17 -10 16 -15 -24 -68 -109 -144 -301
-218 -473 -183 -109 22 -183 61 -259 137 -76 76 -115 150 -137 259 -36 174 40
367 187 476 135 99 284 123 446 74z m217 -1774 c155 -33 311 -153 381 -296 39
-79 66 -185 66 -259 0 -183 -109 -381 -264 -479 -105 -66 -172 -85 -306 -86
-134 0 -209 20 -309 85 -160 103 -250 261 -259 450 -8 179 41 303 168 430 85
86 147 122 252 150 88 23 179 25 271 5z m-1109 -973 c8 -4 -49 -40 -65 -42 -9
0 -18 48 -11 55 6 6 60 -3 76 -13z"/>
<path d="M4615 6200 c3 -5 -12 -36 -35 -68 -22 -33 -40 -64 -40 -69 0 -5 19
-15 43 -22 54 -16 118 -47 184 -88 67 -42 97 -96 91 -164 -13 -131 -149 -193
-266 -122 -52 32 -128 63 -155 63 -9 0 -17 -8 -18 -17 0 -10 -3 -36 -5 -58 -6
-61 -6 -315 1 -345 l6 -28 112 0 c181 -1 262 -19 312 -70 101 -104 21 -287
-120 -277 -22 2 -86 7 -142 10 l-102 8 10 -34 c6 -19 12 -43 14 -54 5 -34 45
-147 55 -160 5 -7 7 -14 4 -17 -2 -3 2 -21 9 -39 13 -31 35 -84 66 -162 10
-26 12 -27 35 -12 42 28 195 75 265 81 56 6 73 3 108 -15 58 -29 86 -73 91
-140 3 -46 0 -62 -20 -91 -34 -50 -79 -76 -142 -84 -31 -3 -86 -18 -121 -32
l-66 -26 57 -106 c31 -58 62 -111 68 -117 6 -6 22 -35 35 -63 14 -29 28 -52
33 -52 4 0 17 -19 29 -43 12 -23 27 -45 32 -49 6 -4 30 11 54 33 49 45 171
126 238 159 131 64 265 -33 242 -175 -9 -55 -34 -81 -135 -144 -87 -54 -182
-133 -182 -151 0 -7 35 -55 57 -78 7 -7 13 -18 13 -23 0 -6 5 -7 10 -4 6 3 10
2 10 -4 0 -6 29 -39 65 -74 36 -35 65 -62 65 -60 0 3 13 -9 29 -26 15 -16 31
-27 35 -24 3 3 6 -1 6 -9 0 -29 27 -13 65 37 78 105 178 191 286 248 70 37
115 51 166 49 94 -4 169 -107 143 -201 -16 -59 -46 -89 -129 -129 -56 -26 -95
-54 -148 -108 -40 -39 -73 -79 -73 -87 0 -10 25 -25 68 -41 81 -31 170 -59
197 -62 11 -1 36 -5 55 -9 49 -10 160 -9 170 1 11 12 47 225 60 353 13 133 13
449 0 582 -24 238 -85 504 -167 727 -97 264 -280 588 -459 812 -87 110 -345
367 -454 454 -123 98 -318 226 -450 295 -142 74 -273 134 -265 121z m915
-1102 c50 -34 72 -71 78 -126 9 -95 -63 -174 -156 -174 -174 0 -236 213 -88
303 44 27 124 25 166 -3z m349 -1453 c72 -25 129 -75 86 -75 -9 0 -59 -22
-113 -49 -78 -40 -116 -67 -198 -145 l-101 -95 -32 39 c-18 22 -38 40 -46 40
-24 0 -29 47 -10 96 25 65 127 163 200 191 43 16 165 16 214 -2z"/>
<path d="M659 4142 c-13 -2 -21 -33 -38 -130 -32 -189 -41 -297 -41 -508 0
-290 25 -494 95 -762 97 -370 297 -766 541 -1072 87 -109 345 -367 454 -454
146 -116 347 -243 528 -334 l174 -87 30 35 c16 19 34 44 39 55 6 11 25 49 44
85 40 75 38 80 -45 100 -143 34 -295 117 -324 177 -36 75 -5 168 69 210 59 33
104 30 189 -16 71 -38 166 -71 204 -71 19 0 20 6 16 148 -3 139 -9 211 -18
257 -3 11 -5 28 -5 37 -1 15 -13 17 -108 16 -252 -2 -357 35 -384 135 -22 83
13 157 94 199 37 18 47 19 108 9 37 -6 97 -11 133 -11 79 0 79 -1 35 120 -16
47 -34 98 -39 114 -5 16 -17 40 -25 53 -9 14 -14 27 -11 30 3 4 -9 34 -28 67
-18 34 -31 66 -29 73 9 24 -17 22 -78 -6 -71 -32 -188 -61 -245 -61 -124 0
-209 133 -152 239 28 53 83 84 176 101 61 11 132 37 132 49 0 3 -14 29 -30 56
-16 28 -43 76 -60 108 -17 32 -38 66 -48 76 -9 10 -30 42 -47 70 -16 29 -39
62 -50 75 -11 13 -28 35 -39 49 l-18 26 -82 -63 c-44 -35 -112 -80 -149 -101
-61 -33 -74 -37 -123 -33 -42 4 -61 11 -84 33 -53 51 -63 130 -25 189 10 14
48 46 85 71 81 54 170 132 170 149 0 15 -176 181 -245 232 -15 10 -33 25 -41
32 -8 7 -14 10 -14 5 -1 -14 -103 -119 -165 -168 -82 -66 -211 -127 -268 -127
-134 0 -210 141 -138 257 12 21 43 43 92 67 71 34 179 110 179 126 0 11 -143
59 -200 67 -54 8 -168 12 -191 7z m553 -562 c22 -43 23 -111 1 -157 -19 -41
-73 -79 -124 -88 -86 -16 -189 71 -189 158 0 21 7 25 63 36 34 7 96 30 137 51
41 22 79 38 84 36 5 -1 17 -18 28 -36z m1056 -1092 c31 -63 42 -102 32 -112
-18 -18 -169 -12 -215 8 -45 19 -105 58 -105 67 0 4 12 6 28 4 28 -2 198 37
209 49 14 13 40 5 51 -16z"/>
</g>
</svg>
